<svg width="326" height="72" viewBox="0 0 326 72" fill="none" xmlns="http://www.w3.org/2000/svg">
<path d="M87.976 19.16V53H78.568V39.416H67.096V53H57.688V19.16H67.096V31.88H78.568V19.16H87.976ZM98.1119 23.576C96.4479 23.576 95.1039 23.128 94.0799 22.232C93.0879 21.304 92.5919 20.152 92.5919 18.776C92.5919 17.368 93.0879 16.2 94.0799 15.272C95.1039 14.344 96.4479 13.88 98.1119 13.88C99.7439 13.88 101.056 14.344 102.048 15.272C103.072 16.2 103.584 17.368 103.584 18.776C103.584 20.152 103.072 21.304 102.048 22.232C101.056 23.128 99.7439 23.576 98.1119 23.576ZM102.768 26.072V53H93.3599V26.072H102.768ZM117.534 30.824C118.59 29.288 119.87 28.072 121.374 27.176C122.878 26.28 124.494 25.832 126.222 25.832V35.864H123.582C121.534 35.864 120.014 36.264 119.022 37.064C118.03 37.864 117.534 39.256 117.534 41.24V53H108.126V26.072H117.534V30.824ZM128.058 39.512C128.058 36.728 128.554 34.296 129.546 32.216C130.57 30.136 131.946 28.536 133.674 27.416C135.434 26.296 137.386 25.736 139.53 25.736C141.386 25.736 142.986 26.104 144.33 26.84C145.674 27.576 146.714 28.568 147.45 29.816V26.072H156.858V53H147.45V49.256C146.714 50.504 145.658 51.496 144.282 52.232C142.938 52.968 141.354 53.336 139.53 53.336C137.386 53.336 135.434 52.776 133.674 51.656C131.946 50.536 130.57 48.936 129.546 46.856C128.554 44.744 128.058 42.296 128.058 39.512ZM147.45 39.512C147.45 37.784 146.97 36.424 146.01 35.432C145.082 34.44 143.93 33.944 142.554 33.944C141.146 33.944 139.978 34.44 139.05 35.432C138.122 36.392 137.658 37.752 137.658 39.512C137.658 41.24 138.122 42.616 139.05 43.64C139.978 44.632 141.146 45.128 142.554 45.128C143.93 45.128 145.082 44.632 146.01 43.64C146.97 42.648 147.45 41.272 147.45 39.512ZM171.627 17.48V53H162.219V17.48H171.627ZM212.908 30.44C212.908 32.488 212.428 34.36 211.468 36.056C210.54 37.72 209.116 39.064 207.196 40.088C205.308 41.08 202.988 41.576 200.236 41.576H195.58V53H186.172V19.16H200.236C202.956 19.16 205.26 19.64 207.148 20.6C209.068 21.56 210.508 22.888 211.468 24.584C212.428 26.28 212.908 28.232 212.908 30.44ZM199.324 34.088C201.98 34.088 203.308 32.872 203.308 30.44C203.308 27.976 201.98 26.744 199.324 26.744H195.58V34.088H199.324ZM215.152 39.512C215.152 36.728 215.648 34.296 216.64 32.216C217.664 30.136 219.04 28.536 220.768 27.416C222.528 26.296 224.48 25.736 226.624 25.736C228.48 25.736 230.08 26.104 231.424 26.84C232.768 27.576 233.808 28.568 234.544 29.816V26.072H243.952V53H234.544V49.256C233.808 50.504 232.752 51.496 231.376 52.232C230.032 52.968 228.448 53.336 226.624 53.336C224.48 53.336 222.528 52.776 220.768 51.656C219.04 50.536 217.664 48.936 216.64 46.856C215.648 44.744 215.152 42.296 215.152 39.512ZM234.544 39.512C234.544 37.784 234.064 36.424 233.104 35.432C232.176 34.44 231.024 33.944 229.648 33.944C228.24 33.944 227.072 34.44 226.144 35.432C225.216 36.392 224.752 37.752 224.752 39.512C224.752 41.24 225.216 42.616 226.144 43.64C227.072 44.632 228.24 45.128 229.648 45.128C231.024 45.128 232.176 44.632 233.104 43.64C234.064 42.648 234.544 41.272 234.544 39.512ZM265.201 44.984V53H261.121C254.241 53 250.801 49.592 250.801 42.776V33.896H247.489V26.072H250.801V19.544H260.257V26.072H265.153V33.896H260.257V42.92C260.257 43.656 260.417 44.184 260.737 44.504C261.089 44.824 261.665 44.984 262.465 44.984H265.201ZM295.244 39.224C295.244 39.96 295.196 40.696 295.1 41.432H277.292C277.388 42.904 277.788 44.008 278.492 44.744C279.228 45.448 280.156 45.8 281.276 45.8C282.844 45.8 283.964 45.096 284.636 43.688H294.668C294.252 45.544 293.436 47.208 292.22 48.68C291.036 50.12 289.532 51.256 287.708 52.088C285.884 52.92 283.868 53.336 281.66 53.336C279.004 53.336 276.636 52.776 274.556 51.656C272.508 50.536 270.892 48.936 269.708 46.856C268.556 44.776 267.98 42.328 267.98 39.512C267.98 36.696 268.556 34.264 269.708 32.216C270.86 30.136 272.46 28.536 274.508 27.416C276.588 26.296 278.972 25.736 281.66 25.736C284.316 25.736 286.668 26.28 288.716 27.368C290.764 28.456 292.364 30.024 293.516 32.072C294.668 34.088 295.244 36.472 295.244 39.224ZM285.644 36.872C285.644 35.72 285.26 34.824 284.492 34.184C283.724 33.512 282.764 33.176 281.612 33.176C280.46 33.176 279.516 33.496 278.78 34.136C278.044 34.744 277.564 35.656 277.34 36.872H285.644ZM308.502 17.48V53H299.094V17.48H308.502ZM318.42 53.384C316.756 53.384 315.412 52.936 314.388 52.04C313.396 51.112 312.9 49.944 312.9 48.536C312.9 47.128 313.396 45.96 314.388 45.032C315.412 44.104 316.756 43.64 318.42 43.64C320.052 43.64 321.364 44.104 322.356 45.032C323.38 45.96 323.892 47.128 323.892 48.536C323.892 49.912 323.38 51.064 322.356 51.992C321.364 52.92 320.052 53.384 318.42 53.384Z" fill="white"/>
<path d="M29.5531 50.3777L29.5531 50.3778C30.1004 50.7468 30.7192 51.0376 31.4129 51.248C32.1029 51.4574 32.8122 51.5622 33.5423 51.5622C35.5313 51.5622 37.2234 50.8584 38.6456 49.4362C40.0677 48.0141 40.7715 46.322 40.7715 44.333C40.7715 42.344 40.0677 40.6519 38.6456 39.2298C37.2234 37.8077 35.5313 37.1038 33.5423 37.1038C33.1995 37.1038 32.8779 37.1299 32.5766 37.1808C32.2615 37.234 31.9462 37.299 31.6305 37.3759C31.1125 37.5292 30.5935 37.513 30.0909 37.3234C29.6018 37.1389 29.2067 36.8396 28.9392 36.4158L28.9334 36.4067L28.9335 36.4066L23.6641 27.6465C22.8766 27.677 22.1523 27.4193 21.5113 26.8909C20.7621 26.2733 20.3868 25.4465 20.3886 24.4571M29.5531 50.3777L26.3233 24.458M29.5531 50.3777L29.5464 50.3734C29.4012 50.2788 29.245 50.1909 29.0785 50.1093C28.8649 50.0046 28.6369 49.9479 28.3991 49.9479C28.0272 49.9479 27.6681 50.0281 27.3784 50.2475C27.0806 50.4731 26.9196 50.7974 26.8593 51.1576C26.8001 51.5068 26.8324 51.8497 26.9791 52.167C27.1239 52.4804 27.3636 52.7332 27.6621 52.9344C28.5298 53.535 29.4532 53.992 30.4316 54.3031C31.4143 54.6156 32.452 54.7705 33.5423 54.7705C36.4205 54.7705 38.8901 53.7477 40.9229 51.7133C42.9555 49.6792 43.9783 47.2099 43.9798 44.3333C43.9814 41.4564 42.9592 38.9868 40.925 36.9525C38.8908 34.9184 36.4213 33.8955 33.5445 33.8955C33.051 33.8955 32.5879 33.927 32.1566 33.9916L32.1543 33.9919C31.8683 34.0361 31.5872 34.0832 31.3112 34.1334L26.4304 25.9327M29.5531 50.3777L25.833 25.9067M20.3886 24.4571L20.8886 24.458M20.3886 24.4571C20.3886 24.4574 20.3886 24.4577 20.3886 24.458H20.8886M20.3886 24.4571C20.3888 23.5743 20.7063 22.807 21.33 22.1832L21.331 22.1822C21.9573 21.5594 22.7251 21.2418 23.607 21.2418C24.489 21.2418 25.2563 21.5594 25.8813 22.1827C26.5072 22.8068 26.825 23.575 26.8233 24.459M20.8886 24.458C20.8871 25.3045 21.2007 25.9869 21.8293 26.5051C22.458 27.0234 23.1587 27.2287 23.9317 27.1213L20.8886 24.458ZM26.8233 24.459L26.3233 24.458M26.8233 24.459C26.8233 24.4587 26.8233 24.4583 26.8233 24.458H26.3233M26.8233 24.459C26.8232 24.781 26.7728 25.096 26.6726 25.402C26.6105 25.5914 26.5301 25.7689 26.4304 25.9327M26.3233 24.458C26.3233 24.7274 26.2813 24.9902 26.1974 25.2464C26.1135 25.5025 25.992 25.7226 25.833 25.9067M26.4304 25.9327L26.2627 25.651L25.833 25.9067M26.4304 25.9327C26.3656 26.0389 26.2927 26.1394 26.2114 26.2336L25.833 25.9067M7.8387 35.2644L7.83737 35.2636C7.29222 34.9605 6.71498 35.0077 6.17982 35.3281C4.62137 36.2444 3.37153 37.4937 2.43444 39.0689C1.49108 40.6546 1.02148 42.4131 1.02148 44.333C1.02148 47.2098 2.04435 49.6793 4.07851 51.7135C6.11267 53.7476 8.58216 54.7705 11.459 54.7705C13.9827 54.7705 16.2564 53.9319 18.2636 52.2707C20.1866 50.6793 21.3551 48.5572 21.7786 45.9372H30.7846C31.0238 46.3822 31.3517 46.7508 31.7682 47.0342L31.7701 47.0355C32.2862 47.3832 32.8837 47.5493 33.5423 47.5493C34.4255 47.5493 35.1932 47.2318 35.8171 46.6078C36.4411 45.9839 36.7586 45.2162 36.7586 44.333C36.7586 43.4499 36.4411 42.6817 35.8176 42.0565L35.8171 42.056C35.1932 41.432 34.4255 41.1145 33.5423 41.1145C32.9 41.1145 32.3103 41.295 31.7875 41.6558C31.3693 41.9436 31.0358 42.3022 30.7927 42.7288H20.6655C20.1164 42.7288 19.6333 42.9162 19.2637 43.31C18.9058 43.6898 18.7246 44.1753 18.6892 44.7248L18.6889 44.7292C18.5827 46.6405 17.839 48.2488 16.4452 49.5777C15.052 50.9034 13.3987 51.5622 11.459 51.5622C9.47001 51.5622 7.77786 50.8584 6.35575 49.4362C4.93363 48.0141 4.22982 46.322 4.22982 44.333L4.22982 44.3325C4.22844 43.0026 4.56813 41.7901 5.24877 40.6841C5.93823 39.5637 6.81619 38.6978 7.8836 38.076L7.88491 38.0753C8.12668 37.9334 8.31152 37.7284 8.4448 37.4824L8.4455 37.4811C8.57423 37.2417 8.64648 36.9843 8.64648 36.7143C8.64648 36.0886 8.38527 35.5705 7.8387 35.2644ZM30.7318 23.5454L30.735 23.5714L30.7409 23.597C30.8258 23.9634 31.0181 24.2779 31.2987 24.5351C31.5888 24.801 31.9374 24.958 32.3321 24.958C32.8081 24.958 33.2254 24.7803 33.55 24.4327C33.8863 24.0726 34.0123 23.6265 33.9172 23.1462C33.6134 20.5863 32.4846 18.4204 30.5453 16.6671C28.5951 14.9041 26.2732 14.0205 23.6048 14.0205C20.728 14.0205 18.2585 15.0434 16.2243 17.0775C14.1902 19.1117 13.1673 21.5812 13.1673 24.458C13.1673 26.0566 13.5009 27.5686 14.1689 28.9882C14.7792 30.2851 15.6512 31.4113 16.7784 32.3655L11.5017 41.1497C10.6083 41.1216 9.83239 41.3979 9.223 42.0106C8.57816 42.6588 8.24273 43.4403 8.24273 44.333C8.24273 45.2162 8.56023 45.9839 9.18418 46.6078C9.80813 47.2318 10.5758 47.5493 11.459 47.5493C12.3422 47.5493 13.1098 47.2318 13.7338 46.6078C14.3577 45.9839 14.6752 45.2162 14.6752 44.333C14.6752 44.0078 14.6217 43.6887 14.5163 43.3775C14.4494 43.1801 14.3648 42.993 14.2623 42.8168L20.1199 33.0606C20.1204 33.0598 20.1208 33.0591 20.1213 33.0583C20.396 32.6099 20.4622 32.1126 20.3277 31.6011C20.196 31.0961 19.8996 30.6878 19.4644 30.386C18.4822 29.6691 17.7248 28.8059 17.1845 27.7953C16.647 26.7901 16.3757 25.6808 16.3757 24.458C16.3757 22.469 17.0795 20.7769 18.5016 19.3548C19.9237 17.9327 21.6158 17.2288 23.6048 17.2288C25.4531 17.2288 27.0381 17.8337 28.3845 19.0479C29.7327 20.265 30.511 21.7577 30.7318 23.5454Z" fill="#E6E6E6" stroke="white"/>
</svg>
